<?xml version="1.0" encoding="utf-8"?>
<!-- Generator: Adobe Illustrator 23.0.3, SVG Export Plug-In . SVG Version: 6.00 Build 0)  -->
<svg version="1.1" id="Layer_1" xmlns="http://www.w3.org/2000/svg" xmlns:xlink="http://www.w3.org/1999/xlink" x="0px" y="0px"
	 viewBox="0 0 90 67" style="enable-background:new 0 0 90 67;" xml:space="preserve">
<style type="text/css">
	.st0{fill:#F27B70;}
</style>
<g id="Page-1">
	<g id="Landing" transform="translate(-1890 -1233)">
		<g id="Benefits" transform="translate(490 1224)">
			<g id="_x34_" transform="translate(1310 9)">
				<path id="Rectangle-2" class="st0" d="M130,10c6.6,0,12.4,3.2,16,8h13.5c1.4,0,2.5,1.1,2.5,2.5s-1.1,2.5-2.5,2.5h-10.8
					c0.6,1.6,1,3.3,1.2,5h0.6c1.4,0,2.5,1.1,2.5,2.5s-1.1,2.5-2.5,2.5H150v6c0,11-9,20-20,20h-6.8l-6.6,6.6c-1.2,1.2-3.1,1.2-4.2,0
					l-7.3-7.3C96.4,56.1,90,48.3,90,39v-9c0-11,9-20,20-20H130z M130,15h-20c-8.3,0-15,6.7-15,15v9c0,6.9,4.7,12.8,11.2,14.5
					c0.9,0.2,1.7,0.7,2.3,1.3l5.9,5.9l5.2-5.2c0.9-0.9,2.2-1.5,3.5-1.5h6.8c8.3,0,15-6.7,15-15v-9C145,21.7,138.3,15,130,15z
					 M120.5,37c1.4,0,2.5,1.1,2.5,2.5s-1.1,2.5-2.5,2.5h-10c-1.4,0-2.5-1.1-2.5-2.5s1.1-2.5,2.5-2.5H120.5z M129.5,27
					c1.4,0,2.5,1.1,2.5,2.5s-1.1,2.5-2.5,2.5h-19c-1.4,0-2.5-1.1-2.5-2.5s1.1-2.5,2.5-2.5H129.5z M159.9,0C171,0,180,9,180,20.2v9.1
					c0,9.4-6.4,17.3-15,19.5l-7.3,7.3c-1.2,1.2-3.1,1.2-4.3,0l-6.4-6.5c0.9-1.4,1.6-3,2.2-4.7c0.4,0.2,0.8,0.5,1.2,0.9l5.3,5.3
					l5.9-5.9c0.6-0.6,1.4-1.1,2.3-1.3c6.6-1.7,11.3-7.7,11.3-14.6v-9.1c0-8.4-6.7-15.1-15.1-15.1H140c-4.4,0-8.4,1.9-11.2,5h-6.2
					c3.5-6,10-10,17.4-10h19.9V0z"/>
			</g>
		</g>
	</g>
</g>
</svg>
