<?xml version="1.0" encoding="utf-8"?>
<!-- Generator: Adobe Illustrator 23.0.3, SVG Export Plug-In . SVG Version: 6.00 Build 0)  -->
<svg version="1.1" id="Layer_1" xmlns="http://www.w3.org/2000/svg" xmlns:xlink="http://www.w3.org/1999/xlink" x="0px" y="0px"
	 viewBox="0 0 64 72" style="enable-background:new 0 0 64 72;" xml:space="preserve">
<style type="text/css">
	.st0{fill:#F27B70;}
</style>
<g id="Page-1">
	<g id="Landing" transform="translate(-593 -1234)">
		<g id="Benefits" transform="translate(490 1224)">
			<g id="_x31_" transform="translate(0 10)">
				<g id="Group-3" transform="translate(103)">
					<path id="Shape" class="st0" d="M32,0c4.8,0,9.6,0.7,15.1,2.2c4.9,1.3,9.9,3.2,15,5.6c1.1,0.4,1.9,1.5,1.9,2.8
						c0,14.9-1.9,26.6-6.7,36.2c-4.8,9.7-12.4,17.4-23.6,24.4c-1,0.6-2.2,0.6-3.2,0c-11.3-7-18.9-14.7-23.7-24.4
						C2,37.2,0,25.6,0,10.6c0-1.3,0.8-2.4,1.9-2.8C7,5.4,12,3.6,16.9,2.2C22.4,0.7,27.2,0,32,0z M55.3,35.9H32v29.5
						c9.5-6.1,15.9-12.8,20.1-21.1C53.3,41.6,54.4,38.9,55.3,35.9z M32,5.8c-4.3,0-8.6,0.7-13.6,2c-4.2,1.1-8.4,2.7-12.6,4.6
						c0.1,9.1,1,16.8,2.9,23.4H32C32,35.8,32,5.8,32,5.8z"/>
				</g>
			</g>
		</g>
	</g>
</g>
</svg>
