<?xml version="1.0" encoding="utf-8"?>
<!-- Generator: Adobe Illustrator 23.0.3, SVG Export Plug-In . SVG Version: 6.00 Build 0)  -->
<svg version="1.1" id="Layer_1" xmlns="http://www.w3.org/2000/svg" xmlns:xlink="http://www.w3.org/1999/xlink" x="0px" y="0px"
	 viewBox="0 0 86 85" style="enable-background:new 0 0 86 85;" xml:space="preserve">
<style type="text/css">
	.st0{fill:#F27B70;}
</style>
<g id="Page-1">
	<g id="Landing" transform="translate(-1019 -1227)">
		<g id="Benefits" transform="translate(490 1224)">
			<g id="_x32_" transform="translate(437 3)">
				<g id="Group-5" transform="translate(92)">
					<path id="Oval" class="st0" d="M43,19c12.7,0,23,10.3,23,23S55.7,65,43,65S20,54.7,20,42S30.3,19,43,19z M43,24
						c-9.9,0-18,8.1-18,18s8.1,18,18,18s18-8.1,18-18S52.9,24,43,24z M51.1,37.2c1,1,1,2.6,0,3.5l-7.9,7.9c-1,1-2.6,1-3.5,0
						l-4.9-4.9c-1-1-1-2.6,0-3.5s2.6-1,3.5,0l3.2,3.2l6.1-6.1C48.5,36.3,50.1,36.3,51.1,37.2z M11,53.7l-2,0.9l1.6,3.4l-1.3,0.6
						l-1.5-3.2L6,56.2l1.5,3.2L6.2,60l-1.6-3.4l-1.9,0.9l2.7,5.9l8.3-3.9L11,53.7z M14.8,61.3l-1.7,1.4l2.3,2.8L10,69.9l1.7,2.1
						l7.1-5.9C18.8,66.1,14.8,61.3,14.8,61.3z M20.6,67.7l-5.8,7.1l2.1,1.7l5.8-7.1L20.6,67.7z M26.1,75.2l-3-1.6l-0.9,1.8l3,1.6
						l-0.8,1.6l-3.3-1.7l-1,1.9l5.7,2.9l4.2-8.2l-2.4-1.2L26.1,75.2L26.1,75.2z M37.5,80.1c-0.3,1.6-1.2,2.4-2.3,2.2
						c-1.1-0.2-1.7-1.3-1.4-2.9s1.2-2.4,2.3-2.2C37.3,77.4,37.8,78.6,37.5,80.1z M36.5,75.1c-2.8-0.5-4.9,0.9-5.4,3.8s0.9,5,3.7,5.5
						s4.9-0.9,5.4-3.8C40.8,77.7,39.3,75.6,36.5,75.1z M47.9,82.7c-0.7,0.1-1.3-0.3-1.4-1c-0.1-0.7,0.3-1.2,1.1-1.3l1.1-0.1l0.3,2.3
						C49,82.6,47.9,82.7,47.9,82.7z M48.1,75.4l0.4,3l-0.9,0.1l-1.8-2.8l-3,0.4l2.2,3.2c-0.9,0.6-1.3,1.7-1.1,2.8
						c0.3,1.9,1.7,2.9,4.1,2.6l4-0.5L50.8,75L48.1,75.4z M59.5,79.3c-0.8,0.4-1.5,0.2-1.8-0.6c-0.4-0.8-0.1-1.4,0.8-1.8l0.7-0.3
						l1.1,2.4L59.5,79.3z M57.2,72.5l1,2.3L57,75.3c-2,0.9-2.7,2.7-1.9,4.5c0.8,1.9,2.6,2.5,4.5,1.6l3.8-1.7l-3.8-8.3
						C59.6,71.4,57.2,72.5,57.2,72.5z M73.2,65.3l0.7-0.9l1.9,1.4l-0.7,0.9c-0.4,0.6-1.1,0.7-1.7,0.3C72.9,66.6,72.8,65.9,73.2,65.3
						z M70,61.6l2.5,1.8L72,64.1l-3.3-0.7l-1.8,2.4l3.8,0.7c-0.2,1,0.3,2.1,1.2,2.7c1.6,1.2,3.3,0.8,4.7-1.1l2.4-3.3l-7.4-5.5
						L70,61.6L70,61.6z M72.6,57.3l2,0.8l1.3-3.5l1.4,0.5l-1.2,3.3l1.8,0.7l1.2-3.3l1.4,0.5l-1.3,3.5l2,0.8l2.3-6l-8.6-3.2
						C74.9,51.4,72.6,57.3,72.6,57.3z M83.1,45.9c-0.1,0.7-0.4,1.1-1,1c-0.6,0-0.9-0.5-0.8-1.2l0.1-1l1.8,0.1
						C83.2,44.8,83.1,45.9,83.1,45.9z M79.7,45.7c-0.1,0.8-0.5,1.3-1.1,1.2c-0.7-0.1-1-0.6-1-1.4l0.1-1.1l2.1,0.2L79.7,45.7z
						 M76.1,41.5l-0.4,4.6c-0.2,2,0.8,3.3,2.4,3.4c1.2,0.1,2.2-0.9,2.4-2.1h0.1c0,1.1,0.8,1.9,1.8,2c1.4,0.1,2.4-0.9,2.5-2.8
						l0.4-4.5C85.3,42.1,76.1,41.5,76.1,41.5z M74.1,31.4l5.1-1.4l-4.5,3.3l0.4,1.4l5.6,0.7l-5.1,1.4l0.6,2.3l8.9-2.3l-0.8-3
						l-5.7-0.6l4.7-3.4l-0.8-3l-8.9,2.3C73.6,29.1,74.1,31.4,74.1,31.4z M72.2,27.1l1.8-1.2l-2.1-3.2l1.2-0.8l1.9,3l1.6-1.1l-1.9-3
						l1.2-0.8l2.1,3.2l1.8-1.2l-3.6-5.4l-7.7,5L72.2,27.1z M67.3,19.7l5.7-7.2l-2.5-1.9l-4.9,2.9L67.3,8l-2.5-1.9l-5.7,7.2l1.9,1.5
						l3.3-4.2L62.7,16l1.1,0.9l4.9-2.8l-3.3,4.2C65.4,18.3,67.3,19.7,67.3,19.7z M45.1,7.3l0.5-4.9l0.8,0.1c1.3,0.1,2,1.1,1.8,2.6
						c-0.2,1.7-1,2.4-2.3,2.3C45.9,7.4,45.1,7.3,45.1,7.3z M51,5.4c0.3-2.9-1.1-4.7-3.9-5L43.2,0l-1,9.1l3.9,0.4
						C48.8,9.9,50.6,8.3,51,5.4z M39.8,9.3l-0.4-2.1l-3.7,0.7l-0.3-1.4l3.5-0.6L38.6,4l-3.5,0.6l-0.3-1.5l3.7-0.7l-0.4-2.1l-6.4,1.2
						l1.6,9L39.8,9.3z M31.2,11.3l-3.5-8.5l-2.5,1l3.5,8.5L31.2,11.3z M23.8,15.2L22,12.5l2.8-1.9l-1.1-1.7l-2.8,1.9l-1-1.5L23,7.2
						l-1.2-1.8L16.4,9l5.1,7.6L23.8,15.2z M19.8,18.3l-6.5-6.5l-1.9,1.9l6.5,6.5L19.8,18.3z M10.1,22.5l-0.6,0.9l-2-1.2l0.6-0.9
						c0.4-0.6,1.1-0.8,1.6-0.4C10.4,21.2,10.5,21.8,10.1,22.5z M13.7,26l-2.6-1.6l0.5-0.8L15,24l1.6-2.6L12.7,21
						c0.1-1.1-0.5-2-1.4-2.6c-1.7-1-3.3-0.6-4.6,1.5l-2.2,3.5l7.8,4.8L13.7,26z M11.4,30.5l-2.1-0.6l-1,3.6l-1.4-0.4l1-3.4L6,29.2
						l-1,3.4l-1.4-0.4l1-3.6L2.5,28l-1.8,6.2l8.8,2.5C9.5,36.7,11.4,30.5,11.4,30.5z M9.2,41.3L0,38.7v3L6.7,43v0.1l-6.6,1.6v3.1
						l9.1-2.9C9.2,44.9,9.2,41.3,9.2,41.3z"/>
				</g>
			</g>
		</g>
	</g>
</g>
</svg>
