<?xml version="1.0" encoding="UTF-8" standalone="no"?>
<svg width="840px" height="600px" viewBox="0 0 840 600" version="1.1" xmlns="http://www.w3.org/2000/svg" xmlns:xlink="http://www.w3.org/1999/xlink">
    <!-- Generator: Sketch 39.1 (31720) - http://www.bohemiancoding.com/sketch -->
    <title>American-Express</title>
    <desc>Created with Sketch.</desc>
    <defs>
        <rect id="path-1" x="0" y="0" width="840" height="600" rx="60"></rect>
        <mask id="mask-2" maskContentUnits="userSpaceOnUse" maskUnits="objectBoundingBox" x="0" y="0" width="840" height="600" fill="white">
            <use xlink:href="#path-1"></use>
        </mask>
    </defs>
    <g id="Page-1" stroke="none" stroke-width="1" fill="none" fill-rule="evenodd">
        <g id="GoPro-Credit_Card-Logos" transform="translate(-4260.000000, -100.000000)">
            <g id="American-Express" transform="translate(4260.000000, 100.000000)">
                <use id="CC-BG" stroke="#666666" mask="url(#mask-2)" stroke-width="10" fill="#FFFFFF" xlink:href="#path-1"></use>
                <g id="American_Express-Logo" transform="translate(120.000000, 191.000000)" fill="#1378A9">
                    <path d="M54.1139276,53.7441572 L42.5659895,25.8023538 L31.0840518,53.7441572 L54.1139276,53.7441572 Z M308.515601,42.617751 C306.197071,44.0151583 303.454862,44.061668 300.169746,44.061668 L279.673433,44.061668 L279.673433,28.4935784 L300.448651,28.4935784 C303.388861,28.4935784 306.456815,28.6246514 308.4496,29.7577986 C310.638258,30.7788996 311.992331,32.9521744 311.992331,35.9541689 C311.990202,39.0174717 310.70213,41.4824897 308.515601,42.617751 L308.515601,42.617751 Z M454.732,53.7441572 L443.056319,25.8023538 L431.446638,53.7441572 L454.732,53.7441572 L454.732,53.7441572 Z M182.173834,83.9881944 L164.877475,83.9881944 L164.813604,29.0939773 L140.348752,83.9881944 L125.534859,83.9881944 L101.008265,29.0453535 L101.008265,83.9881944 L66.6923234,83.9881944 L60.2093824,68.3545683 L25.0801459,68.3545683 L18.5312046,83.9881944 L0.20651733,83.9881944 L30.4197898,13.8979659 L55.4850324,13.8979659 L84.1824251,80.2589562 L84.1824251,13.8979659 L111.719488,13.8979659 L133.79981,61.4457529 L154.083219,13.8979659 L182.173834,13.8979659 L182.173834,83.9881944 L182.173834,83.9881944 L182.173834,83.9881944 Z M251.11017,83.9881944 L194.745842,83.9881944 L194.745842,13.8979659 L251.11017,13.8979659 L251.11017,28.4935784 L211.62065,28.4935784 L211.62065,41.1273241 L250.162745,41.1273241 L250.162745,55.494616 L211.62065,55.494616 L211.62065,69.4919437 L251.11017,69.4919437 L251.11017,83.9881944 L251.11017,83.9881944 Z M330.576761,32.7745917 C330.576761,43.9496218 323.067621,49.7231759 318.688176,51.456722 C322.379939,52.8520152 325.535184,55.3170332 327.03616,57.3592351 C329.416432,60.845354 329.827338,63.9593947 329.827338,70.2191874 L329.827338,83.9881944 L312.809884,83.9881944 L312.746012,75.1492234 C312.746012,70.9316326 313.15266,64.8663353 310.082578,61.4943767 C307.619273,59.0293587 303.85938,58.4944963 297.787345,58.4944963 L279.675562,58.4944963 L279.675562,83.9881944 L262.802883,83.9881944 L262.802883,13.8979659 L301.60898,13.8979659 C310.231611,13.8979659 316.58468,14.1262866 322.039292,17.2551259 C327.376807,20.3860793 330.576761,24.9567216 330.576761,32.7745917 L330.576761,32.7745917 Z M357.579435,83.9881944 L340.36398,83.9881944 L340.36398,13.8979659 L357.579435,13.8979659 L357.579435,83.9881944 L357.579435,83.9881944 Z M557.298725,83.9881944 L533.391683,83.9881944 L501.411303,31.3814125 L501.411303,83.9881944 L467.050652,83.9881944 L460.484678,68.3545683 L425.436345,68.3545683 L419.066244,83.9881944 L399.323613,83.9881944 C391.122533,83.9881944 380.739182,82.1869977 374.86089,76.2358608 C368.931501,70.2847239 365.846515,62.2237345 365.846515,49.4779425 C365.846515,39.0830082 367.690268,29.5802159 374.941794,22.0710015 C380.394277,16.4771443 388.936004,13.8979659 400.562717,13.8979659 L416.898876,13.8979659 L416.898876,28.9163946 L400.905493,28.9163946 C394.748296,28.9163946 391.273695,29.8254492 387.922579,33.0684489 C385.04411,36.0197054 383.072615,41.5987641 383.072615,48.9451942 C383.072615,56.4544086 384.575721,61.868569 387.713932,65.4054258 C390.311367,68.1790996 395.031459,69.0205037 399.472646,69.0205037 L407.049916,69.0205037 L430.831344,13.90008 L456.111621,13.90008 L484.677012,80.1955338 L484.677012,13.90008 L510.366065,13.90008 L540.023657,62.7142012 L540.023657,13.90008 L557.305112,13.90008 L557.305112,83.9881944 L557.298725,83.9881944 L557.298725,83.9881944 Z M0.00638713392,97.7550873 L28.8336516,97.7550873 L35.3336249,82.1869977 L49.885645,82.1869977 L56.3685859,97.7550873 L113.090593,97.7550873 L113.090593,85.8528135 L118.153461,97.8058252 L147.598149,97.8058252 L152.661017,85.6752307 L152.661017,97.7550873 L293.620804,97.7550873 L293.554804,72.2000809 L296.28211,72.2000809 C298.191863,72.2656174 298.749673,72.4410861 298.749673,75.5720395 L298.749673,97.7550873 L371.654549,97.7550873 L371.654549,91.8060645 C377.53497,94.9349038 386.681346,97.7550873 398.716835,97.7550873 L429.385723,97.7550873 L435.949568,82.1869977 L450.501588,82.1869977 L456.922787,97.7550873 L516.027195,97.7550873 L516.027195,82.9649794 L524.977698,97.7550873 L572.340426,97.7550873 L572.340426,0 L525.46525,0 L525.46525,11.5449942 L518.901405,0 L470.804158,0 L470.804158,11.5449942 L464.776832,0 L399.809035,0 C388.933875,0 379.374465,1.50733947 371.65242,5.70801764 L371.65242,0 L326.816869,0 L326.816869,5.70801764 C321.903033,1.37838056 315.207188,0 307.761919,0 L143.968128,0 L132.977999,25.2484647 L121.691934,0 L70.0987948,0 L70.0987948,11.5449942 L64.431278,0 L20.4324414,0 L0,46.4780622 L0.00638713392,97.7550873 L0.00638713392,97.7550873 L0.00638713392,97.7550873 Z" id="Shape"></path>
                    <path d="M600,150.039013 L569.253615,150.039013 C566.186002,150.039013 564.144474,150.153099 562.426525,151.304526 C560.646841,152.439052 559.961365,154.122882 559.961365,156.345454 C559.961365,158.990568 561.464304,160.786372 563.650591,161.565962 C565.430275,162.180761 567.341945,162.358228 570.151972,162.358228 L579.295206,162.60119 C588.521463,162.829363 594.682236,164.40122 598.435326,168.242127 C599.118673,168.774531 599.529533,169.376653 600,169.97455 L600,150.039013 Z M600,196.231318 C595.902043,202.178598 587.916882,205.191323 577.106791,205.191323 L544.525373,205.191323 L544.525373,190.169951 L576.972676,190.169951 C580.191435,190.169951 582.443714,189.749522 583.799765,188.433303 C584.974868,187.351595 585.796588,185.775513 585.796588,183.865622 C585.796588,181.822631 584.974868,180.206408 583.733772,179.232448 C582.511836,178.163417 580.730023,177.677493 577.790138,177.677493 C561.951801,177.14509 542.187941,178.163417 542.187941,155.992631 C542.187941,145.830493 548.689323,135.133839 566.392496,135.133839 L599.995742,135.133839 L599.995742,121.194175 L568.776762,121.194175 C559.354654,121.194175 552.508405,123.435761 547.663237,126.915395 L547.663237,121.194175 L501.482988,121.194175 C494.098151,121.194175 485.429642,123.008993 481.329556,126.915395 L481.329556,121.194175 L398.863762,121.194175 L398.863762,126.915395 C392.300645,122.216727 381.226582,121.194175 376.117441,121.194175 L321.72212,121.194175 L321.72212,126.915395 C316.529955,121.925173 304.983296,121.194175 297.943326,121.194175 L237.065782,121.194175 L223.134857,136.156391 L210.087389,121.194175 L119.148936,121.194175 L119.148936,218.951408 L208.375826,218.951408 L222.728255,203.75468 L236.252577,218.951408 L291.25248,219 L291.25248,196.003145 L296.659654,196.003145 C303.957211,196.115119 312.563984,195.821452 320.157445,192.565765 L320.157445,218.949295 L365.52236,218.949295 L365.52236,193.470005 L367.710775,193.470005 C370.503772,193.470005 370.778389,193.586204 370.778389,196.353855 L370.778389,218.94507 L508.586823,218.94507 C517.336227,218.94507 526.48159,216.722498 531.546026,212.689333 L531.546026,218.94507 L575.258985,218.94507 C584.353256,218.94507 593.238903,217.679556 599.997871,214.438658 L599.997871,196.231318 L600,196.231318 L600,196.231318 Z M532.704098,168.242127 C535.98885,171.614014 537.749374,175.873238 537.749374,183.08392 C537.749374,198.155997 528.261274,205.191323 511.247834,205.191323 L478.389671,205.191323 L478.389671,190.169951 L511.115848,190.169951 C514.315448,190.169951 516.582629,189.749522 518.004673,188.433303 C519.164874,187.351595 519.997238,185.775513 519.997238,183.865622 C519.997238,181.822631 519.096752,180.204295 517.93868,179.232448 C516.648622,178.163417 514.868938,177.677493 511.931182,177.677493 C496.15458,177.14509 476.397106,178.163417 476.397106,155.992631 C476.397106,145.830493 482.830366,135.133839 500.516509,135.133839 L534.339023,135.133839 L534.339023,150.047464 L503.39253,150.047464 C500.324917,150.047464 498.330223,150.16155 496.631433,151.312977 C494.785756,152.447503 494.10028,154.131333 494.10028,156.353905 C494.10028,158.999019 495.669212,160.794823 497.791634,161.574413 C499.571318,162.189212 501.48086,162.366679 504.35688,162.366679 L513.438378,162.609641 C522.596514,162.82725 528.882886,164.399107 532.704098,168.242127 L532.704098,168.242127 Z M380.47937,163.913183 C378.220704,165.242078 375.431964,165.358277 372.149341,165.358277 L351.6553,165.358277 L351.6553,149.622809 L372.428215,149.622809 C375.431964,149.622809 378.437842,149.68619 380.47937,150.888322 C382.665657,152.022848 383.972745,154.194715 383.972745,157.188426 C383.970616,160.186362 382.665657,162.60119 380.47937,163.913183 L380.47937,163.913183 Z M390.667849,172.63234 C394.423067,174.007715 397.49281,176.473248 398.931884,178.514126 C401.314021,181.934605 401.658888,185.126911 401.724881,191.304477 L401.724881,205.191323 L384.790208,205.191323 L384.790208,196.425687 C384.790208,192.212942 385.19681,185.969882 382.063204,182.714195 C379.598043,180.202182 375.840696,179.602172 369.68631,179.602172 L351.657428,179.602172 L351.657428,205.191323 L334.705724,205.191323 L334.705724,135.129614 L373.654409,135.129614 C382.19519,135.129614 388.415569,135.503564 393.952601,138.436006 C399.276751,141.628312 402.625368,145.99951 402.625368,153.991894 C402.623239,165.174472 395.108544,170.883016 390.667849,172.63234 L390.667849,172.63234 Z M411.977224,135.129614 L468.282087,135.129614 L468.282087,149.618583 L428.775654,149.618583 L428.775654,162.356116 L467.315608,162.356116 L467.315608,176.650716 L428.775654,176.650716 L428.775654,190.59038 L468.282087,190.653762 L468.282087,205.191323 L411.977224,205.191323 L411.977224,135.129614 L411.977224,135.129614 Z M298.158336,167.460425 L276.357205,167.460425 L276.357205,149.620696 L298.354186,149.620696 C304.444708,149.620696 308.672522,152.084117 308.672522,158.208865 C308.670393,164.272344 304.640558,167.460425 298.158336,167.460425 L298.158336,167.460425 Z M259.554518,198.817275 L233.653301,170.27878 L259.554518,142.648751 L259.554518,198.817275 L259.554518,198.817275 Z M192.665218,190.59038 L151.187508,190.59038 L151.187508,176.650716 L188.224523,176.650716 L188.224523,162.356116 L151.187508,162.356116 L151.187508,149.618583 L193.48268,149.618583 L211.935195,170.035819 L192.665218,190.59038 L192.665218,190.59038 Z M326.784427,158.210977 C326.784427,177.67538 312.153124,181.691643 297.404737,181.691643 L276.355076,181.691643 L276.355076,205.191323 L243.565035,205.191323 L222.792119,181.997986 L201.20387,205.191323 L134.378434,205.191323 L134.378434,135.129614 L202.229955,135.129614 L222.985841,158.094778 L244.444233,135.129614 L298.349928,135.129614 C311.740135,135.129614 326.784427,138.807843 326.784427,158.210977 L326.784427,158.210977 Z" id="Shape"></path>
                </g>
            </g>
        </g>
    </g>
</svg>